<svg xmlns="http://www.w3.org/2000/svg" width="20.528" height="20.534" viewBox="0 0 20.528 20.534">
  <g id="Group_11" data-name="Group 11" transform="translate(0 0)">
    <path id="Path_47" data-name="Path 47" d="M1314.29,268.458a.662.662,0,0,1-.012-.081c.006-.75,0-1.5.025-2.251a1.089,1.089,0,0,1,1.092-1.145c.5-.04,1.01-.028,1.515-.035.391,0,.547-.159.547-.555q0-.894,0-1.789a.453.453,0,0,0-.5-.518c-.75,0-1.5-.019-2.251.022a3.546,3.546,0,0,0-3.5,3.079,7.1,7.1,0,0,0-.089,1.079c-.013.724,0,1.447,0,2.2h-1.854a.435.435,0,0,0-.488.492q0,1.126.005,2.252a.441.441,0,0,0,.485.484q.838,0,1.677,0h.177v7.354h-.187q-3.594,0-7.187,0a2.768,2.768,0,0,1-2.783-2.419,2.87,2.87,0,0,1-.017-.4q0-7.443,0-14.886a2.764,2.764,0,0,1,2.4-2.8,2.882,2.882,0,0,1,.446-.023c4.946,0,9.891.006,14.837-.005a2.8,2.8,0,0,1,2.783,2.2,3.21,3.21,0,0,1,.061.633q0,7.443,0,14.886a2.763,2.763,0,0,1-2.417,2.8,2.42,2.42,0,0,1-.366.018q-2.116,0-4.232,0c-.052,0-.1,0-.158-.007v-7.346h2.482a.444.444,0,0,0,.5-.452q.135-1.132.274-2.264a.441.441,0,0,0-.452-.512c-.868,0-1.735,0-2.6,0Z" transform="translate(-1300.939 -258.507)" fill="#fff"/>
  </g>
</svg>
