<svg xmlns="http://www.w3.org/2000/svg" width="20.534" height="20.534" viewBox="0 0 20.534 20.534">
  <g id="Group_12" data-name="Group 12" transform="translate(0)">
    <path id="Path_48" data-name="Path 48" d="M1018.885,267.3q0-2.2,0-4.4a5.818,5.818,0,0,1,4.335-5.665,5.364,5.364,0,0,1,1.406-.19c3.016,0,6.031-.01,9.046,0a5.814,5.814,0,0,1,5.741,5.8c0,3,.008,6,0,9a5.807,5.807,0,0,1-4.758,5.627,6.637,6.637,0,0,1-1.109.1q-4.433.012-8.867,0a5.813,5.813,0,0,1-5.69-4.761,6.58,6.58,0,0,1-.1-1.1C1018.879,270.245,1018.885,268.774,1018.885,267.3Zm10.263-8.284q-2.2,0-4.4,0a4.139,4.139,0,0,0-.55.032,3.845,3.845,0,0,0-3.336,3.818q0,4.44,0,8.881a3.775,3.775,0,0,0,.06.688,3.839,3.839,0,0,0,3.8,3.161q4.427,0,8.854,0a3.841,3.841,0,0,0,3.862-3.875q0-4.408,0-8.817a3.882,3.882,0,0,0-.062-.727,3.836,3.836,0,0,0-3.839-3.161Z" transform="translate(-1018.883 -257.04)" fill="#fff"/>
    <path id="Path_49" data-name="Path 49" d="M1063.165,306.693a5.349,5.349,0,1,1,5.372,5.343A5.361,5.361,0,0,1,1063.165,306.693Zm1.973-.007a3.376,3.376,0,1,0,3.384-3.376A3.384,3.384,0,0,0,1065.138,306.686Z" transform="translate(-1058.25 -296.421)" fill="#fff"/>
    <path id="Path_50" data-name="Path 50" d="M1150.787,289.662a1.226,1.226,0,1,1-1.231,1.215A1.227,1.227,0,0,1,1150.787,289.662Z" transform="translate(-1135.052 -286.041)" fill="#fff"/>
  </g>
</svg>
