<svg xmlns="http://www.w3.org/2000/svg" width="460" height="454.914" viewBox="0 0 460 454.914">
  <g id="Group_14" data-name="Group 14" transform="translate(1433.543 2375.296)">
    <path id="Path_65" data-name="Path 65" d="M-974.543-1972.758c-.755,2.769-3.025,3.489-5.436,4.015a11.8,11.8,0,0,1-8.745-1.539c-1.417-.832-2.781-1.754-4.175-2.625a9.749,9.749,0,0,0-3.586-1.509,5.32,5.32,0,0,0-1-.092c-1.656.048-1.891.32-2.5,1.847a10.907,10.907,0,0,0-.811,4.506,15.669,15.669,0,0,1-4.8-1.935,52.41,52.41,0,0,1-4.528-3.419c-1.008-.827-1.895-1.8-2.859-2.684a8.569,8.569,0,0,0-6.318-2.446,51.705,51.705,0,0,0-6.028.57q-5.416.888-10.788,2.035a15.1,15.1,0,0,0-6.883,3.3,4.664,4.664,0,0,0-1.39,1.742,62.609,62.609,0,0,0-3.362,11.5c-.43,2.789-.995,5.557-1.472,8.339a4.471,4.471,0,0,1-.916,2.037q-10.324,13.367-20.6,26.773a2.094,2.094,0,0,1-2,.949c-6.02-.345-12.043-.641-18.065-.95q-2.906-.149-5.813-.285c-4.382-.2-8.764-.38-13.145-.589q-10.362-.495-20.723-1.016-7.518-.371-15.036-.753c-4-.206-8-.444-12-.636a2.626,2.626,0,0,1-1.586-.65q-28.874-22.949-57.759-45.884-29.824-23.684-59.651-47.365c-2.708-2.15-5.439-4.274-8.117-6.462a117.117,117.117,0,0,0-10.012-6.859q-32.343-21.259-64.7-42.5a12.1,12.1,0,0,0-4.3-1.669q-23.839-5.048-47.677-10.1c-2.259-.479-4.52-.945-6.958-1.453.249-.5.431-.906.644-1.292,1.486-2.7,2.96-5.4,4.478-8.072a2.9,2.9,0,0,0,.435-2.5,14.592,14.592,0,0,1-.363-1.988h-1.4c-2.489,0-4.98-.043-7.467.023a1.389,1.389,0,0,1-1.561-1.083c-.6-1.619-1.286-3.2-1.974-4.887,1.163-1.527,2.343-3.059,3.5-4.605.555-.738,1.364-1.445,1.528-2.271a6.679,6.679,0,0,0-.542-2.685q-5.394-20.533-10.81-41.061a14.956,14.956,0,0,0-.743-1.831v-.253c2.8-1.46,5.612-2.9,8.4-4.382q44.368-23.577,88.746-47.137a15.526,15.526,0,0,0,6.147-5.652,54.734,54.734,0,0,0,2.684-5.006,14.039,14.039,0,0,0,1.015-8.77,26.256,26.256,0,0,1-.461-6.417,10.032,10.032,0,0,1,1.516-4.766c.742-1.176,1.543-2.315,2.318-3.469.493-.736.985-1.471,1.483-2.2a7.507,7.507,0,0,0,.831-7.116c-.512-1.427-1.084-2.832-1.62-4.251a15.959,15.959,0,0,1-1.025-7.194,12.014,12.014,0,0,1,3.11-7.047c1.065-1.2,2.225-2.307,3.342-3.456a14.636,14.636,0,0,0,2.8-3.729,8.423,8.423,0,0,0,.519-6.864,41.738,41.738,0,0,0-2.188-4.681c-.882-1.678-1.913-3.277-2.811-4.946a13.03,13.03,0,0,1-.985-10.869c.4-1.154.731-2.332,1.142-3.482a87.342,87.342,0,0,1,4.756-11.153c.331-.635.714-1.242,1.045-1.878a9.63,9.63,0,0,1,6.624-5.052c2.37-.563,4.8-.848,7.2-1.321,1.853-.366,3.714-.738,5.52-1.28a6.842,6.842,0,0,0,3.976-3.339c.293-.512.556-1.042.866-1.544a22.674,22.674,0,0,1,1.252-1.9,5.868,5.868,0,0,1,5.969-2.469,7.738,7.738,0,0,0,1.878-.018,1.224,1.224,0,0,0,1.209-1.227c.061-.671.158-1.341.195-2.013a4.96,4.96,0,0,1,1.886-3.848c1.1-.854,2.237-1.649,3.348-2.483.942-.706,1.881-1.419,2.8-2.153a1.791,1.791,0,0,0,.644-1.556c-.043-2.973,1.4-4.713,4.31-5.283a5.71,5.71,0,0,1,.992-.187c2.224-.03,3.38-1.481,4.289-3.229a16.248,16.248,0,0,0,.722-1.886,14.577,14.577,0,0,1,3.2-5.106,8.639,8.639,0,0,1,8.538-2.606,50.7,50.7,0,0,1,5.405,1.711c1.114.382,2.2.853,3.288,1.3a13.985,13.985,0,0,0,8.923.505,34.235,34.235,0,0,1,4.333-.846,13.909,13.909,0,0,1,7.235,1.4,83.449,83.449,0,0,0,10.763,4,30.421,30.421,0,0,0,7.063,1.311,15.065,15.065,0,0,0,3.74-.406,2.845,2.845,0,0,0,2.3-2.557,1.277,1.277,0,0,1,1.278-1.254,15.577,15.577,0,0,1,4.513-.292,5.691,5.691,0,0,1,5.07,4.136,28.5,28.5,0,0,1,.78,4.591c.155,1.168.148,2.357.314,3.524.178,1.254.584,1.522,1.815,1.218a10.291,10.291,0,0,0,4.156-2.055c.808-.672,1.52-1.458,2.279-2.189,1.033-.993,2.01-2.055,3.117-2.958a8.819,8.819,0,0,1,7.814-1.906,6.381,6.381,0,0,1,4.253,2.92,11.69,11.69,0,0,1,.829,1.562,8.284,8.284,0,0,0,3.949,4.663c.708,4.2-.884,8.193-.654,12.343.917.085,1.783.147,2.646.25a6.308,6.308,0,0,1,5.481,4.25,20.475,20.475,0,0,1,.99,5.708,60,60,0,0,0,.766,6.769c.674,3.245,2.616,4.858,5.923,5.342.832.122,1.669.2,2.616.317a9.432,9.432,0,0,1,.806,3.186c.3,2.638.476,5.289.774,7.927.174,1.545.487,3.074.738,4.611a2.015,2.015,0,0,0,.055.247c1.058,3.554,2.687,4.848,6.375,5.2,1.8.173,3.59.455,5.38.727a5.425,5.425,0,0,1,3.458,1.941c1.3,1.6,2.536,3.254,3.732,4.933,1.977,2.773.846,2.23,4.3,2.314,4.6.11,9.2.1,13.794.272a44.839,44.839,0,0,1,10.021,1.195,10.382,10.382,0,0,1,2.009.737c2.226,1.136,2.6,3.195.833,4.943a10.537,10.537,0,0,1-7.672,3.357c-1.8-.021-3.6-.349-5.4-.532-.753-.076-1.507-.154-2.262-.2a3.039,3.039,0,0,0-3.218,2.142,10.114,10.114,0,0,0-.583,6.8,33.118,33.118,0,0,0,2.016,5.025c.8,1.622,1.85,3.116,2.715,4.707.925,1.7,1.761,3.448,2.642,5.172a13.756,13.756,0,0,0,.737,1.317c.325.492.71.943,1.05,1.426,2.182,3.095,1.23,5.913-1.19,8.09a4.848,4.848,0,0,1-4.868.892c-.768-.22-1.527-.477-2.278-.751a3.485,3.485,0,0,0-4.016,1.025,12.108,12.108,0,0,0-1.473,2.043c-.454.756-.808,1.574-1.2,2.367-1.841,3.722-3.1,4.9-6.968,6.484.106,5.6.8,11.212.755,16.969-.814-.184-1.505-.339-2.2-.5a13.779,13.779,0,0,0-5.752-.417,4.039,4.039,0,0,0-2.521,1.326c-1.686,2.109-1.418,3.384-.218,4.9.734.923,1.609,1.745,2.27,2.715,2.3,3.375,3.588,7.043,2.885,11.2a9.577,9.577,0,0,1-1.9,4.1c-.905,1.218-1.9,2.371-2.795,3.595-.717.978-1.346,2.019-1.982,2.982.147.2.182.3.243.318,4.706,1.54,8.091,4.8,10.934,8.646,2.227,3.015,4.282,6.162,6.323,9.308a45.994,45.994,0,0,0,7.758,9.289c2.312,2.084,4.432,4.391,6.544,6.685a15.329,15.329,0,0,1,3,4.8c1.437,3.667.429,6.729-2.914,8.822-.46.288-.931.559-1.535.919.247,1.358.41,2.74.764,4.072a1.858,1.858,0,0,0,2.321,1.634c1.593-.114,3.177-.369,4.763-.578a16.4,16.4,0,0,1,12.36,2.859c1.121.824,2.243,1.652,3.3,2.552a26.144,26.144,0,0,0,8.526,4.829,25.708,25.708,0,0,1,6.7,3.217,22.637,22.637,0,0,1,5.43,5.6c.844,1.211,1.685,2.425,2.572,3.6a19.644,19.644,0,0,0,1.588,1.8,6.329,6.329,0,0,0,6.121,1.872c.289-.056.579-.108.87-.154,3.647-.568,6.262,1.113,8.365,3.869a16.429,16.429,0,0,1,2.466,5.235c.622,2.012,1.136,4.058,1.8,6.054a18.441,18.441,0,0,0,1.5,3.33,4.927,4.927,0,0,0,4.371,2.566c.5.014,1,.049,1.514.074a6.559,6.559,0,0,1,.241.642,15.847,15.847,0,0,0,3.982,6.949c1.64,1.757,3.354,3.445,5.035,5.164.32.327.639.656.911.937-.039.191-.031.288-.074.348-2.822,3.968-3.962,8.522-4.572,13.246a103.277,103.277,0,0,0-.322,18.7q.182,3.474.386,6.948c.042.714.121,1.426.19,2.214l13.966,1.447c.221,1.611.558,3.35.68,5.1.242,3.491.341,6.992.543,10.486a31.047,31.047,0,0,0,1.984,10,11.175,11.175,0,0,0,5.413,6.1c.79.4,1.548.857,2.328,1.275a13.218,13.218,0,0,1,4.964,4.762c.314.5.639,1,.909,1.52a33.958,33.958,0,0,0,4.617,6.626c.3.35.591.714.887,1.072,1.743,2.105,3.452,4.232,4.221,6.93Z" fill="none" stroke="#fff" stroke-miterlimit="10" stroke-width="2"/>
  </g>
</svg>
