<svg xmlns="http://www.w3.org/2000/svg" width="49" height="49" viewBox="0 0 49 49">
  <g id="Group_15" data-name="Group 15" transform="translate(196.459 3021.521)">
    <path id="Path_66" data-name="Path 66" d="M-187.89-2998.168a16.165,16.165,0,0,1,.232-1.7l-2.615,1.389c-.235.124-.468.243-.7.364v.021a1.169,1.169,0,0,1,.062.152l.113.425h2.875C-187.913-2997.737-187.908-2997.954-187.89-2998.168Z" fill="#fff"/>
    <path id="Path_67" data-name="Path 67" d="M-187.945-2996.521h-2.589c.175.66.35,1.322.523,1.981a.533.533,0,0,1,.045.223c-.013.067-.081.127-.127.188-.1.128-.191.255-.291.382.057.139.115.271.164.405a.115.115,0,0,0,.129.09h.735a1.556,1.556,0,0,0,.03.165.238.238,0,0,1-.036.208c-.126.221-.247.446-.371.669-.017.032-.032.065-.053.107l.578.121,2.159.457a15.848,15.848,0,0,1-.846-4.013C-187.921-2995.863-187.939-2996.19-187.945-2996.521Z" fill="#fff"/>
    <path id="Path_68" data-name="Path 68" d="M-171.067-2980.848l2.776,2.2a.212.212,0,0,0,.132.054c.337.016.668.036,1,.053l1.247.062,1.719.084c.363.018.727.032,1.09.049l.482.024c.5.026,1,.05,1.5.079a.172.172,0,0,0,.166-.079q.852-1.11,1.708-2.22a.355.355,0,0,0,.076-.169c.039-.231.086-.461.122-.691a5.279,5.279,0,0,1,.279-.955.405.405,0,0,1,.115-.144,1.265,1.265,0,0,1,.572-.274q.445-.094.895-.168a4.164,4.164,0,0,1,.5-.048.716.716,0,0,1,.524.2c.08.074.153.154.237.223a4.248,4.248,0,0,0,.375.283,1.28,1.28,0,0,0,.4.161.886.886,0,0,1,.067-.374c.05-.126.07-.153.207-.153a.455.455,0,0,1,.083.008.825.825,0,0,1,.3.125c.115.072.228.149.346.218a.982.982,0,0,0,.725.128c.2-.044.388-.1.451-.333l-.009-.13a1.605,1.605,0,0,0-.35-.575l-.074-.089a2.822,2.822,0,0,1-.383-.55c-.022-.043-.049-.084-.075-.126a1.093,1.093,0,0,0-.412-.4c-.065-.035-.127-.073-.193-.106a.929.929,0,0,1-.449-.506,2.592,2.592,0,0,1-.165-.83c-.017-.29-.025-.58-.045-.87-.01-.145-.038-.289-.056-.423l-1.158-.12c-.006-.066-.016-.125-.016-.184q-.017-.288-.032-.576a8.547,8.547,0,0,1,.027-1.551,2.368,2.368,0,0,1,.379-1.1c.006-.005.006-.013.006-.029l-.076-.078c-.14-.142-.282-.282-.418-.428a1.307,1.307,0,0,1-.322-.558A15.988,15.988,0,0,1-171.067-2980.848Z" fill="#fff"/>
    <path id="Path_69" data-name="Path 69" d="M-172.466-3012.778v-2.428a6.79,6.79,0,0,1-.639-.237,1.155,1.155,0,0,0-.6-.116,2.938,2.938,0,0,0-.359.07,1.167,1.167,0,0,1-.74-.042c-.091-.037-.181-.076-.273-.108a4.072,4.072,0,0,0-.448-.142.717.717,0,0,0-.708.216,1.21,1.21,0,0,0-.266.424,1.258,1.258,0,0,1-.06.156.4.4,0,0,1-.356.268.568.568,0,0,0-.082.015.4.4,0,0,0-.357.438.149.149,0,0,1-.053.129c-.076.06-.139.109-.232.178s-.187.135-.278.206a.413.413,0,0,0-.156.319c0,.056-.011.111-.016.167a.1.1,0,0,1-.1.1.576.576,0,0,1-.156,0,.488.488,0,0,0-.5.2c-.036.051-.069.1-.1.157s-.048.086-.072.128a.563.563,0,0,1-.33.277c-.15.045-.3.075-.458.106-.2.04-.4.063-.6.11a.805.805,0,0,0-.549.419c-.028.056-.059.1-.087.156a7.4,7.4,0,0,0-.394.925c-.034.1-.062.189-.1.289a1.064,1.064,0,0,0,.04.765,15.9,15.9,0,0,1,8.478-3.117C-172.831-3012.762-172.649-3012.772-172.466-3012.778Z" fill="#fff"/>
    <path id="Path_70" data-name="Path 70" d="M-171.04-3012.757a15.979,15.979,0,0,1,3.989.728c-.015-.117-.033-.233-.04-.351a1.661,1.661,0,0,0-.082-.474.522.522,0,0,0-.455-.353c-.071-.009-.143-.014-.219-.021a8.76,8.76,0,0,0,.054-1.024.687.687,0,0,1-.327-.387.988.988,0,0,0-.069-.129.529.529,0,0,0-.353-.242.733.733,0,0,0-.648.158c-.091.075-.172.162-.258.245-.063.06-.122.125-.189.181a.837.837,0,0,1-.345.17c-.1.026-.137-.008-.151-.1s-.013-.192-.026-.292a2.333,2.333,0,0,0-.065-.381.472.472,0,0,0-.421-.343,1.3,1.3,0,0,0-.374.024.107.107,0,0,0-.106.1.237.237,0,0,1-.191.212,1.063,1.063,0,0,1-.15.016v2.242C-171.323-3012.774-171.182-3012.765-171.04-3012.757Z" fill="#fff"/>
    <path id="Path_71" data-name="Path 71" d="M-171.466-2980.828h0c.134,0,.266-.013.4-.02h0C-171.2-2980.841-171.333-2980.832-171.466-2980.828Z" fill="none"/>
    <path id="Path_72" data-name="Path 72" d="M-166.128-3010.047v.021a.516.516,0,0,0,.529.432c.149.014.3.038.446.06a.447.447,0,0,1,.287.161c.108.133.21.27.31.409.164.23.07.185.358.192.38.009.762.008,1.144.022.051,0,.1.016.152.018a14.98,14.98,0,0,0-3.309-1.921c.007.074.014.15.022.224C-166.174-3010.3-166.149-3010.174-166.128-3010.047Z" fill="none"/>
    <path id="Path_73" data-name="Path 73" d="M-156.8-2991.733l0,0a15.979,15.979,0,0,0,.821-4.792h0A15.909,15.909,0,0,1-156.8-2991.733Z" fill="none"/>
    <path id="Path_74" data-name="Path 74" d="M-181.488-3009.626l0-.007a15.982,15.982,0,0,0-6.168,9.761h0A16,16,0,0,1-181.488-3009.626Z" fill="none"/>
    <path id="Path_75" data-name="Path 75" d="M-173.082-2982.448l-4.947-3.928c-.225-.178-.451-.354-.673-.536a9.614,9.614,0,0,0-.829-.569q-2.684-1.764-5.366-3.525a.987.987,0,0,0-.358-.138l-.637-.136a15.007,15.007,0,0,0,13.426,9.451v-.131Z" fill="none"/>
    <path id="Path_76" data-name="Path 76" d="M-156-2997.521h0a15.993,15.993,0,0,0-11.056-14.508v0A16.013,16.013,0,0,1-156-2997.521Z" fill="none"/>
    <path id="Path_77" data-name="Path 77" d="M-162.942-2996.223l-.127.076c.021.113.034.227.063.338a.154.154,0,0,0,.167.14l.026-.005c.132-.01.264-.031.4-.048a1.36,1.36,0,0,1,1.025.237c.093.069.186.137.274.212a2.161,2.161,0,0,0,.707.4,2.123,2.123,0,0,1,.555.267,1.875,1.875,0,0,1,.45.465c.07.1.14.2.213.3a1.713,1.713,0,0,0,.132.149.525.525,0,0,0,.508.155l.072-.013a.7.7,0,0,1,.694.321,1.372,1.372,0,0,1,.2.434c.012.038.023.076.034.114a14.926,14.926,0,0,0,.575-3.84h-5.709A.544.544,0,0,1-162.942-2996.223Z" fill="none"/>
    <path id="Path_78" data-name="Path 78" d="M-163.071-3007.945c-.062-.006-.125-.013-.188-.017a.251.251,0,0,0-.267.178.837.837,0,0,0-.048.564,2.768,2.768,0,0,0,.167.417c.066.135.153.258.225.39s.146.286.219.429a1.07,1.07,0,0,0,.061.109c.027.041.059.077.087.117a.468.468,0,0,1-.08.656l-.02.015a.4.4,0,0,1-.4.074c-.064-.018-.127-.04-.189-.062a.289.289,0,0,0-.333.085,1,1,0,0,0-.122.169c-.038.063-.067.131-.1.2a.9.9,0,0,1-.578.538c.009.464.067.93.063,1.407l-.182-.041a1.151,1.151,0,0,0-.477-.035.344.344,0,0,0-.209.11c-.14.175-.118.281-.018.406.061.076.133.145.188.226a1.239,1.239,0,0,1,.239.928.813.813,0,0,1-.157.341c-.075.1-.157.2-.232.3-.059.081-.112.167-.164.248.012.016.015.024.02.026a1.849,1.849,0,0,1,.907.717c.185.25.355.511.524.772a3.821,3.821,0,0,0,.643.77c.134.121.256.255.38.387H-157a14.957,14.957,0,0,0-5.116-10.57.866.866,0,0,1-.511.19A4.458,4.458,0,0,1-163.071-3007.945Z" fill="none"/>
    <path id="Path_79" data-name="Path 79" d="M-187.046-2991.524h0a15.981,15.981,0,0,0,14.583,10.7h0A16.009,16.009,0,0,1-187.046-2991.524Z" fill="none"/>
    <path id="Path_80" data-name="Path 80" d="M-182.4-3002.861a4.5,4.5,0,0,0,.223-.415,1.16,1.16,0,0,0,.084-.727,2.207,2.207,0,0,1-.038-.532.834.834,0,0,1,.126-.4c.062-.1.128-.192.192-.288l.123-.183a.621.621,0,0,0,.069-.591c-.042-.118-.09-.235-.134-.353a1.333,1.333,0,0,1-.085-.6,1.007,1.007,0,0,1,.258-.585c.088-.1.184-.191.277-.287a1.189,1.189,0,0,0,.232-.309.694.694,0,0,0,.043-.569l-.006-.015a15.015,15.015,0,0,0-5.441,8.217l3.567-1.894A1.285,1.285,0,0,0-182.4-3002.861Z" fill="none"/>
    <path id="Path_81" data-name="Path 81" d="M-172.466-3011.778a14.9,14.9,0,0,0-8.573,3.063l.006.015a.694.694,0,0,1-.043.569,1.189,1.189,0,0,1-.232.309c-.093.1-.189.187-.277.287a1.007,1.007,0,0,0-.258.585,1.333,1.333,0,0,0,.085.6c.044.118.092.235.134.353a.621.621,0,0,1-.069.591l-.123.183c-.064.1-.13.188-.192.288a.834.834,0,0,0-.126.4,2.207,2.207,0,0,0,.038.532,1.16,1.16,0,0,1-.084.727,4.5,4.5,0,0,1-.223.415,1.285,1.285,0,0,1-.51.469l-3.567,1.894a14.9,14.9,0,0,0-.443,2.977h14.457Z" fill="#fff"/>
    <path id="Path_82" data-name="Path 82" d="M-184.9-2991.006q2.684,1.761,5.366,3.525a9.614,9.614,0,0,1,.829.569c.222.182.448.358.673.536l4.947,3.928.616.488v-14.561h-14.479a14.88,14.88,0,0,0,1.053,5.241l.637.136A.987.987,0,0,1-184.9-2991.006Z" fill="#fff"/>
    <path id="Path_83" data-name="Path 83" d="M-167.051-3012.025v0a15.979,15.979,0,0,0-3.989-.728A15.928,15.928,0,0,1-167.051-3012.025Z" fill="#fff"/>
    <path id="Path_84" data-name="Path 84" d="M-157.783-2993.229a.7.7,0,0,0-.694-.321l-.072.013a.525.525,0,0,1-.508-.155,1.713,1.713,0,0,1-.132-.149c-.073-.1-.143-.2-.213-.3a1.875,1.875,0,0,0-.45-.465,2.123,2.123,0,0,0-.555-.267,2.161,2.161,0,0,1-.707-.4c-.088-.075-.181-.143-.274-.212a1.36,1.36,0,0,0-1.025-.237c-.136.017-.268.038-.4.048l-.026.005a.154.154,0,0,1-.167-.14c-.029-.111-.042-.225-.063-.338l.127-.076a.544.544,0,0,0,.259-.3h-8.783v14.693a15.009,15.009,0,0,0,13.917-10.853c-.011-.038-.022-.076-.034-.114A1.372,1.372,0,0,0-157.783-2993.229Z" fill="#fff"/>
    <path id="Path_85" data-name="Path 85" d="M-187.657-2999.873h0a16.165,16.165,0,0,0-.232,1.7A15.958,15.958,0,0,1-187.657-2999.873Z" fill="#fff"/>
    <path id="Path_86" data-name="Path 86" d="M-171.067-2980.848h0a15.988,15.988,0,0,0,14.273-10.881l0,0A16.014,16.014,0,0,1-171.067-2980.848Z" fill="#fff"/>
    <path id="Path_87" data-name="Path 87" d="M-187.9-2995.538a15.848,15.848,0,0,0,.846,4.013h0A15.867,15.867,0,0,1-187.9-2995.538Z" fill="#fff"/>
    <path id="Path_88" data-name="Path 88" d="M-173.012-3012.75a15.9,15.9,0,0,0-8.478,3.117l0,.007A15.885,15.885,0,0,1-173.012-3012.75Z" fill="#fff"/>
    <path id="Path_89" data-name="Path 89" d="M-171.466-2997.521h8.354c-.124-.132-.246-.266-.38-.387a3.821,3.821,0,0,1-.643-.77c-.169-.261-.339-.522-.524-.772a1.849,1.849,0,0,0-.907-.717c-.005,0-.008-.01-.02-.026.052-.081.1-.167.164-.248.075-.1.157-.2.232-.3a.813.813,0,0,0,.157-.341,1.239,1.239,0,0,0-.239-.928c-.055-.081-.127-.15-.188-.226-.1-.125-.122-.231.018-.406a.344.344,0,0,1,.209-.11,1.151,1.151,0,0,1,.477.035l.182.041c0-.477-.054-.943-.063-1.407a.9.9,0,0,0,.578-.538c.033-.069.062-.137.1-.2a1,1,0,0,1,.122-.169.289.289,0,0,1,.333-.085c.062.022.125.044.189.062a.4.4,0,0,0,.4-.074l.02-.015a.468.468,0,0,0,.08-.656c-.028-.04-.06-.076-.087-.117a1.07,1.07,0,0,1-.061-.109c-.073-.143-.147-.3-.219-.429s-.159-.255-.225-.39a2.768,2.768,0,0,1-.167-.417.837.837,0,0,1,.048-.564.251.251,0,0,1,.267-.178c.063,0,.126.011.188.017a4.458,4.458,0,0,0,.448.044.866.866,0,0,0,.511-.19c-.256-.223-.52-.435-.79-.641-.052,0-.1-.018-.152-.018-.382-.014-.764-.013-1.144-.022-.288-.007-.194.038-.358-.192-.1-.139-.2-.276-.31-.409a.447.447,0,0,0-.287-.161c-.146-.022-.3-.046-.446-.06a.516.516,0,0,1-.529-.432v-.021c-.021-.127-.046-.254-.061-.382-.008-.074-.015-.15-.022-.224a14.886,14.886,0,0,0-5.255-1.125Z" fill="#fff"/>
    <path id="Path_90" data-name="Path 90" d="M-187.89-2998.168c-.018.214-.023.431-.033.647h0C-187.913-2997.737-187.908-2997.954-187.89-2998.168Z" fill="#fff"/>
    <path id="Path_91" data-name="Path 91" d="M-187.945-2996.521c.006.331.024.658.05.983-.026-.325-.044-.652-.05-.983Z" fill="#fff"/>
    <path id="Path_92" data-name="Path 92" d="M-171.04-3012.757c-.142-.008-.283-.017-.426-.021h0C-171.323-3012.774-171.182-3012.765-171.04-3012.757Z" fill="#fff"/>
    <path id="Path_93" data-name="Path 93" d="M-172.466-3012.778c-.183.006-.365.016-.546.028.181-.012.363-.022.546-.027Z" fill="#fff"/>
    <path id="Path_94" data-name="Path 94" d="M-157.549-2992.681c.038.13.072.26.115.386a1.52,1.52,0,0,0,.124.276.407.407,0,0,0,.362.213l.126.006c.008.022.016.037.02.053l.006.014a15.909,15.909,0,0,0,.822-4.788h-1A14.926,14.926,0,0,1-157.549-2992.681Z" fill="#fff"/>
    <path id="Path_95" data-name="Path 95" d="M-181.039-3008.715a3.617,3.617,0,0,0-.176-.373c-.073-.139-.159-.272-.233-.41a.953.953,0,0,1-.04-.128,16,16,0,0,0-6.169,9.753l1.177-.625A15.015,15.015,0,0,1-181.039-3008.715Z" fill="#fff"/>
    <path id="Path_96" data-name="Path 96" d="M-167.051-3012.025c.009.068.012.138.023.206a.521.521,0,0,0,.491.443c.069.01.138.017.217.026a.762.762,0,0,1,.067.264c.017.144.029.288.042.433a14.98,14.98,0,0,1,3.309,1.921,3.7,3.7,0,0,1,.679.082.93.93,0,0,1,.167.061.235.235,0,0,1,.149.3.241.241,0,0,1-.08.113.92.92,0,0,1-.125.088,14.957,14.957,0,0,1,5.116,10.57h1A16.013,16.013,0,0,0-167.051-3012.025Z" fill="#fff"/>
    <path id="Path_97" data-name="Path 97" d="M-185.892-2991.28l-1.154-.244a16.009,16.009,0,0,0,14.58,10.695v-1A15.007,15.007,0,0,1-185.892-2991.28Z" fill="#fff"/>
    <path id="Path_98" data-name="Path 98" d="M-171.466-2980.828c.133,0,.266-.013.4-.02l-.4-.318Z" fill="#fff"/>
    <path id="Path_99" data-name="Path 99" d="M-161.987-3008.179a.241.241,0,0,0,.08-.113.235.235,0,0,0-.149-.3.93.93,0,0,0-.167-.061,3.7,3.7,0,0,0-.679-.082c.27.206.534.418.79.641A.92.92,0,0,0-161.987-3008.179Z" fill="#fff"/>
    <path id="Path_100" data-name="Path 100" d="M-171.626-3015a1.23,1.23,0,0,0,.16-.018v-6a.5.5,0,0,0-.5-.5.5.5,0,0,0-.5.5v5.815c.086.029.167.069.254.095A2.538,2.538,0,0,0-171.626-3015Z" fill="#fff"/>
    <path id="Path_101" data-name="Path 101" d="M-172.466-2980.829v7.808a.5.5,0,0,0,.5.5.5.5,0,0,0,.5-.5v-7.807c-.165,0-.327.025-.493.025S-172.3-2980.823-172.466-2980.829Z" fill="#fff"/>
    <path id="Path_102" data-name="Path 102" d="M-171.959-2980.8c-.172,0-.338-.02-.507-.026h0c.17.006.336.026.507.026s.328-.02.493-.025h0C-171.632-2980.823-171.793-2980.8-171.959-2980.8Z" fill="#fff"/>
    <path id="Path_103" data-name="Path 103" d="M-172.466-2981.829c.059,0,.117.008.176.009l-.176-.14Z" fill="#fff"/>
    <path id="Path_104" data-name="Path 104" d="M-171.959-3012.8c.166,0,.328.02.493.025h0c-.166,0-.327-.025-.493-.025s-.338.02-.507.025h0C-172.3-3012.783-172.13-3012.8-171.959-3012.8Z" fill="#fff"/>
    <path id="Path_105" data-name="Path 105" d="M-172.29-2981.82l.824.654v-.662c-.165,0-.327.025-.493.025C-172.071-2981.8-172.179-2981.818-172.29-2981.82Z" fill="#fff"/>
    <path id="Path_106" data-name="Path 106" d="M-171.466-3011.778v-1c-.165,0-.327-.025-.493-.025s-.337.02-.507.026v1c.169,0,.335-.025.507-.025S-171.631-3011.784-171.466-3011.778Z" fill="#fff"/>
    <path id="Path_107" data-name="Path 107" d="M-147.959-2997.521h-8.036c.01.24.036.476.036.718,0,.095-.013.187-.014.282h8.014a.5.5,0,0,0,.5-.5A.5.5,0,0,0-147.959-2997.521Z" fill="#fff"/>
    <path id="Path_108" data-name="Path 108" d="M-195.959-2997.521a.5.5,0,0,0-.5.5.5.5,0,0,0,.5.5h5.425l-.264-1Z" fill="#fff"/>
    <path id="Path_109" data-name="Path 109" d="M-162.949-2997.354a1.282,1.282,0,0,1,.249.4.548.548,0,0,1,.017.434h5.709c0-.095.015-.187.015-.282,0-.242-.025-.478-.037-.718h-6.116C-163.059-2997.464-163-2997.412-162.949-2997.354Z" fill="#fff"/>
    <path id="Path_110" data-name="Path 110" d="M-155.995-2997.521h0c.011.24.037.476.037.718,0,.095-.013.187-.015.282h0c0-.095.014-.187.014-.282C-155.959-2997.045-155.985-2997.281-155.995-2997.521Z" fill="#fff"/>
    <path id="Path_111" data-name="Path 111" d="M-187.959-2996.8c0-.242.025-.478.036-.718h0c-.011.24-.036.476-.036.718,0,.095.012.187.014.282h0C-187.947-2996.616-187.959-2996.708-187.959-2996.8Z" fill="#fff"/>
    <path id="Path_112" data-name="Path 112" d="M-186.923-2997.521h-1c-.011.24-.036.476-.036.718,0,.095.012.187.014.282h1c0-.095-.014-.187-.014-.282C-186.959-2997.045-186.935-2997.281-186.923-2997.521Z" fill="#fff"/>
    <rect id="Rectangle_18" data-name="Rectangle 18" width="1" height="1" transform="translate(-172.466 -2997.521)" fill="#fff"/>
  </g>
</svg>
