<svg xmlns="http://www.w3.org/2000/svg" width="25.124" height="20.534" viewBox="0 0 25.124 20.534">
  <g id="Group_13" data-name="Group 13" transform="translate(0 0)">
    <path id="Path_51" data-name="Path 51" d="M729.053,260.266c.3.2.586.027.861-.047a12.23,12.23,0,0,0,2.045-.786c.128-.061.272-.184.4-.028.111.131-.029.246-.081.355a6.228,6.228,0,0,1-1.485,1.868c-.093.085-.23.14-.252.313a13.541,13.541,0,0,0,2.591-.656,7.467,7.467,0,0,1-1.636,1.869,1.8,1.8,0,0,0-.885,1.54.316.316,0,0,1-.053-.343,2.819,2.819,0,0,0,.027.983,1.836,1.836,0,0,1-.093.925.171.171,0,0,1-.066-.153c.019.13-.048.3.042.463a13.789,13.789,0,0,1-2.357,6.232,14.046,14.046,0,0,1-6.843,5.547,15.14,15.14,0,0,1-13.07-1.111,1.785,1.785,0,0,1-.19-.163,10.155,10.155,0,0,1,1.707-.034.8.8,0,0,0,.651-.024,11.368,11.368,0,0,0,4.989-2.051c-.135-.187-.3-.158-.44-.18a5.326,5.326,0,0,1-4-2.914c-.3-.55-.265-.588.384-.582.262,0,.525.01.787.016a.99.99,0,0,0,.514.037c.074,0,.1-.046.029-.026a.5.5,0,0,1-.018-.047c0-.07.347-.12.015-.209a5.079,5.079,0,0,1-2.573-1.716,4.216,4.216,0,0,1-1.123-2.437c.122-.227-.079-.459.011-.687a.28.28,0,0,1,.093-.126,4.5,4.5,0,0,0,2.063.473,9.613,9.613,0,0,1-1.053-1.033,5.115,5.115,0,0,1-.756-5.263c.052-.151.1-.352.3-.376s.249.173.363.286a16.91,16.91,0,0,0,2.812,2.45,17.253,17.253,0,0,0,4.958,2.141c.613.153,1.243.151,1.844.326-.088.082-.177.107-.226.056a1.4,1.4,0,0,0,.643-.029c.271.005.322-.1.282-.375a3.619,3.619,0,0,1,.046-1.579.458.458,0,0,1,.066.39,2.4,2.4,0,0,0-.037-.691,5.254,5.254,0,0,1,4.395-4.037,4.4,4.4,0,0,0,.964.045,2.231,2.231,0,0,0,.6-.035,4.371,4.371,0,0,1,2.379,1.123A.669.669,0,0,0,729.053,260.266Z" transform="translate(-708.01 -258.794)" fill="#fff"/>
    <path id="Path_52" data-name="Path 52" d="M906.943,308.258c-.2-.323-.074-.665-.089-1.035.148.134.07.279.114.4Q906.956,307.938,906.943,308.258Z" transform="translate(-884.365 -301.719)" fill="#fff"/>
    <path id="Path_53" data-name="Path 53" d="M857.028,258.642c-.336-.045-.691.1-1.011-.1a3.786,3.786,0,0,1,1.011-.005c.037.023.049.046.037.069S857.041,258.642,857.028,258.642Z" transform="translate(-839.296 -258.507)" fill="#fff"/>
    <path id="Path_54" data-name="Path 54" d="M816.9,294.567c.207.289.048.6.012.9l-.04-.6Z" transform="translate(-804.569 -290.493)" fill="#fff"/>
    <path id="Path_55" data-name="Path 55" d="M723.768,419.787c.046.028.172.088.1.1-.249.027-.521.113-.755-.071Z" transform="translate(-721.411 -401.566)" fill="#fff"/>
    <path id="Path_56" data-name="Path 56" d="M808.645,314.323c-.212.175-.443.09-.678.008l.26-.035Z" transform="translate(-796.674 -307.993)" fill="#fff"/>
    <path id="Path_57" data-name="Path 57" d="M715.081,323.726c-.165-.519-.155-.564.13-.612a.079.079,0,0,1,0,.056C715.062,323.331,715.248,323.569,715.081,323.726Z" transform="translate(-714.187 -315.815)" fill="#fff"/>
    <path id="Path_58" data-name="Path 58" d="M715.927,324.162c.08-.177-.089-.412.13-.556-.042.252.1.528-.1.758Z" transform="translate(-715.033 -316.251)" fill="#fff"/>
    <path id="Path_59" data-name="Path 59" d="M744.617,368.925c-.158.252-.341.15-.525.036Z" transform="translate(-740.016 -356.45)" fill="#fff"/>
    <path id="Path_60" data-name="Path 60" d="M864.967,258.888q0-.052,0-.1l.556.015C865.358,258.954,865.154,258.864,864.967,258.888Z" transform="translate(-847.235 -258.753)" fill="#fff"/>
    <path id="Path_61" data-name="Path 61" d="M891.323,269.154a.305.305,0,0,1-.376-.3A.669.669,0,0,1,891.323,269.154Z" transform="translate(-870.279 -267.683)" fill="#fff"/>
    <path id="Path_62" data-name="Path 62" d="M906.016,323.8c-.134-.106-.1-.254-.093-.391,0-.066.05-.076.089-.021a.305.305,0,0,1,.028.1Z" transform="translate(-883.556 -316.029)" fill="#fff"/>
  </g>
</svg>
